<?xml version="1.0" encoding="utf-8"?>
<!-- Generator: Adobe Illustrator 21.0.2, SVG Export Plug-In . SVG Version: 6.00 Build 0)  -->
<svg version="1.1" id="Layer_1" xmlns="http://www.w3.org/2000/svg" xmlns:xlink="http://www.w3.org/1999/xlink" x="0px" y="0px"
	 viewBox="0 0 775 627" style="enable-background:new 0 0 775 627;" xml:space="preserve">
<style type="text/css">
	.st0{fill:none;stroke:#000000;stroke-width:7;stroke-miterlimit:10;}
</style>
<g>
	<path class="st0" d="M373.5,508.1c0,0-276.4,89.4-290.5-297.9c0,0,15.6-135.7-50-162.2c0,0,12.5-14.9,45.3,0
		C78.3,48,236-8.3,286,152.3c0,0,34.4,122.5,477.9,451.9v8.3c0,0-40.6,23.2-73.4-9.9c0,0-143.7-117.5-231.1-119.2
		c0,0-218.6,23.2-256.1-223.5c0,0-3.1-16.6-15.6-5c0,0-15.6,180.4,189,241.7C376.6,496.5,388.4,504.4,373.5,508.1z"/>
	<path class="st0" d="M134.5,85.1c-4.3,10.2-0.3,24.7,8.2,28.1s17.8-5.6,19.1-16.7c0.9-7.6-2-16.6-8.2-20.2
		C146.5,72.2,138,76.9,134.5,85.1z"/>
</g>
</svg>
